<?xml version="1.0" encoding="UTF-8"?>
<svg id="a" data-name="Layer 1" xmlns="http://www.w3.org/2000/svg" viewBox="0 0 479.59 130.56">
  <path d="M458.69,19.99h-1.81c-.93,0-1.84.14-2.7.41-.86-.27-1.77-.41-2.7-.41h-1.83c-.19,0-.38.02-.57.03-.19-.01-.38-.03-.57-.03h-7.63c-1.28,0-2.5.27-3.6.74-1.13-.51-2.39-.8-3.71-.8h-10.76c-2.72,0-5.17,1.2-6.83,3.09-1.69-1.92-4.15-3.09-6.83-3.09h-12.7c-4.09,0-7.54,2.7-8.69,6.41-4.8-4.76-11.56-7.49-19.63-7.49s-14.83,2.73-19.63,7.49c-1.14-3.71-4.6-6.41-8.69-6.41h-11.41c-3.94,0-7.28,2.51-8.54,6.01-4.54-4.53-11.03-7.09-18.91-7.09s-14.4,2.53-18.94,7.02c-1.28-3.47-4.61-5.95-8.52-5.95h-11.4c-2.68,0-5.09,1.16-6.75,3-3.58-9-12.11-16.99-22.44-16.99h-.22c-11.7.13-20.13,9.35-23.01,17.85-3.99,11.76-2.22,24.26-1.83,26.64,1.54,9.34,5.22,16.7,8.53,21.76-.51.97-1.02,1.94-1.53,2.92-7.35-19.63-14.69-38.68-23.56-58.62-2.3-5.17-7.44-8.52-13.11-8.52-2.02,0-3.98.42-5.82,1.24-4.3,1.91-7.19,5.71-8.15,9.98-1.55-.23-3.17-.35-4.85-.35-5.29,0-9.95,1.14-13.82,3.24-1.59-1.35-3.64-2.17-5.88-2.17h-35.72c-2.52,0-4.8,1.03-6.44,2.68-3.84-1.75-8.34-2.68-13.41-2.68h-16.46c-5.02,0-9.09,4.07-9.09,9.09v4.93l-1.12-6.48c-.75-4.36-4.53-7.54-8.96-7.54h-14.53c-4.42,0-8.2,3.18-8.96,7.54l-13.02,75.32c-.46,2.64.28,5.35,2,7.4,1.73,2.05,4.27,3.24,6.95,3.24h11.41c4.14,0,7.71-2.79,8.77-6.7,1.06,3.91,4.63,6.7,8.77,6.7h11.62c1.06,0,2.1-.19,3.07-.54.96.35,1.99.54,3.07.54h11.41c2.91,0,5.49-1.36,7.16-3.48,1.69,2.15,4.3,3.48,7.16,3.48h12.05c1.95,0,3.81-.64,5.35-1.76,1.5,1.1,3.35,1.76,5.36,1.76h11.41c5.02,0,9.09-4.07,9.09-9.09v-1.53c4.48,7.31,12.59,11.7,22.88,11.7,15.86,0,26.52-10.44,26.52-25.98v-3.66c0-2.35-.22-4.55-.61-6.64,2.46,6.52,4.91,13.08,7.39,19.76,2.14,5.74,4.28,11.51,6.46,17.3,2.08,5.57,7.47,9.32,13.42,9.32h.01c5.11,0,9.87-2.75,12.43-7.18,3.67-6.37,7.3-13.53,10.81-20.45.83-1.64,1.67-3.29,2.51-4.94,3.3,1.32,7.25,2.27,11.79,2.27.96,0,1.9-.05,2.81-.13v10.18c0,5.02,4.07,9.09,9.09,9.09h11.4c3.89,0,7.21-2.45,8.5-5.9,4.67,4.43,11.23,6.97,19.06,6.97s14.26-2.5,18.89-6.86c1.32,3.39,4.61,5.79,8.46,5.79h11.41c4.09,0,7.54-2.7,8.69-6.41,4.8,4.76,11.56,7.49,19.63,7.49s14.83-2.73,19.63-7.49c1.14,3.71,4.6,6.41,8.69,6.41h10.76c3.17,0,5.96-1.62,7.59-4.08,1.65,2.5,4.48,4.08,7.59,4.08h11.19c5.02,0,9.09-4.07,9.09-9.09v-56.88c.46.07.92.12,1.4.12h1.29c.74,0,1.46-.1,2.16-.27.69.17,1.41.27,2.16.27h1.22c.46,0,.9-.03,1.34-.1.44.06.88.1,1.33.1h1.26c.45,0,.89-.03,1.33-.1.44.06.88.1,1.33.1h1.22c5.02,0,9.09-4.07,9.09-9.09v-9.42c0-5.02-4.07-9.09-9.09-9.09Z" style="fill: #fff;"/>
  <g>
    <g>
      <path d="M49.85,104.35l-2.47-17.11h-12.59l-2.47,17.11h-11.41l13.02-75.32h14.53l13.02,75.32h-11.62ZM36.29,76.91h9.58l-4.63-31.74h-.32l-4.63,31.74Z" style="fill: #e3173e;"/>
      <path d="M84.29,72.5h-5.27v31.85h-11.41V29.03h16.46c12.27,0,18.94,6.67,18.94,19.05v5.38c0,7.96-2.8,13.56-8.07,16.57l10.44,34.33h-12.05l-9.04-31.85ZM79.02,61.95h4.63c5.49,0,7.96-2.91,7.96-9.25v-3.87c0-6.35-2.47-9.25-7.96-9.25h-4.63v22.38Z" style="fill: #e3173e;"/>
      <path d="M127.49,39.79v64.56h-11.41V39.79h-12.16v-10.76h35.72v10.76h-12.16Z" style="fill: #e3173e;"/>
      <path d="M176.35,45.17v2.15l-10.98,1.08v-2.37c0-5.16-1.94-7.53-5.92-7.53-3.34,0-5.7,1.83-5.7,6.13v1.61c0,4.2,2.15,7.64,9.58,14.42,10.11,9.36,13.56,15.5,13.56,24.21v3.66c0,11.08-6.99,16.89-17.43,16.89s-17.65-6.13-17.65-17.22v-4.95l10.98-1.08v5.17c0,5.06,2.37,7.53,6.46,7.53,3.44,0,6.24-1.83,6.24-7.21v-2.37c0-4.73-2.15-8.18-9.58-14.96-10.11-9.36-13.56-15.5-13.56-23.67v-1.83c0-11.08,6.46-16.89,17-16.89s17,6.13,17,17.22Z" style="fill: #e3173e;"/>
    </g>
    <g>
      <path d="M262.08,69.43c-.53.62-4.88,5.58-11.89,5.28-5.91-.25-9.53-4.06-10.23-4.82,6.65-12.71,9.81-29.28,8.05-39.02-.63-7.39-7.41-15.91-15.24-15.83-7.77.09-12.93,7.03-14.5,11.68-3.36,9.91-1.67,21.01-1.47,22.25,1.81,10.99,7.1,18.68,10.3,22.48-4.59,8.31-9.1,17.62-13.57,26.21-9.81-26.32-18.92-51.28-30.56-77.45-1.18-2.65-4.28-3.85-6.93-2.66-2.65,1.18-3.84,4.28-2.66,6.93,13.06,29.36,23.16,57.9,34.36,87.66.76,2.04,2.74,3.41,4.92,3.4,1.87,0,3.61-.99,4.55-2.63,5.93-10.3,11.82-22.85,17.59-33.61,1.45,1.28,7.04,5.94,15.37,5.93,5.78-.01,10.03-2.27,11.92-3.43v22.56h11.4V29.03h-11.4v40.4ZM236.91,46.99c-.85,3.88-2.09,8.69-4.41,14.08-2.05-3.21-4.36-7.91-5.33-13.81-.55-3.26-1.91-20.24,5.73-21.71,1.37,0,4.41,3.4,4.65,6.21.03.3.07.66.12,1.09.26,2.26.82,6.96-.76,14.14Z"/>
      <path d="M304.93,60.66c-7.42-6.78-9.58-10.22-9.58-14.42v-1.61c0-4.3,2.37-6.13,5.7-6.13,3.98,0,5.92,2.37,5.92,7.53v2.37l10.98-1.08v-2.15c0-11.08-6.46-17.22-17-17.22s-17,5.81-17,16.89v1.83c0,8.18,3.44,14.31,13.56,23.67,7.42,6.78,9.58,10.22,9.58,14.96v2.37c0,5.38-2.8,7.21-6.24,7.21-4.09,0-6.46-2.47-6.46-7.53v-5.17l-10.98,1.08v4.95c0,11.08,7.1,17.22,17.65,17.22s17.43-5.81,17.43-16.89v-3.66c0-8.71-3.44-14.85-13.56-24.21Z"/>
      <rect x="328.4" y="29.03" width="11.41" height="75.32"/>
      <path d="M368.13,27.95c-11.41,0-18.4,7.21-18.4,19.05v39.38c0,11.84,6.99,19.05,18.4,19.05s18.4-7.21,18.4-19.05v-39.38c0-11.84-6.99-19.05-18.4-19.05ZM375.12,86.27c0,5.6-2.47,8.61-6.99,8.61s-6.99-3.01-6.99-8.61v-39.17c0-5.6,2.47-8.61,6.99-8.61s6.99,3.01,6.99,8.61v39.17Z"/>
      <polygon points="422.8 29.03 422.8 73.9 422.59 73.9 409.14 29.03 396.44 29.03 396.44 104.35 407.2 104.35 407.2 54.42 407.42 54.42 422.37 104.35 433.56 104.35 433.56 29.03 422.8 29.03"/>
    </g>
    <g>
      <path d="M448.51,29.08v1.12h-3.17v8.29h-1.29v-8.29h-3.17v-1.12h7.63Z"/>
      <path d="M449.65,29.08h1.83l2.71,7.96,2.69-7.96h1.81v9.42h-1.22v-5.56c0-.19,0-.51.01-.95,0-.44.01-.92.01-1.43l-2.69,7.94h-1.26l-2.71-7.94v.29c0,.23,0,.58.02,1.05.01.47.02.82.02,1.04v5.56h-1.22v-9.42Z"/>
    </g>
  </g>
</svg>