<?xml version="1.0" encoding="UTF-8"?>
<svg id="a" data-name="Layer 1" xmlns="http://www.w3.org/2000/svg" viewBox="0 0 501.68 130.56">
  <path d="M491.68,15.45h-2c-1.03,0-2.02.16-2.97.45-.94-.29-1.94-.45-2.97-.45h-2.01c-.21,0-.42.02-.63.03-.21-.01-.42-.03-.63-.03h-8.4c-1.41,0-2.75.29-3.96.82-1.25-.56-2.63-.88-4.08-.88h-11.84c-3,0-5.68,1.32-7.52,3.41-1.86-2.12-4.57-3.41-7.52-3.41h-13.97c-4.5,0-8.3,2.97-9.56,7.05-5.28-5.24-12.72-8.24-21.6-8.24s-16.32,3-21.6,8.24c-1.26-4.08-5.06-7.05-9.56-7.05h-12.55c-4.33,0-8.01,2.76-9.4,6.61-4.99-4.99-12.14-7.8-20.81-7.8s-15.84,2.79-20.84,7.73c-1.41-3.82-5.07-6.54-9.37-6.54h-12.55c-2.95,0-5.6,1.28-7.43,3.3-3.94-9.9-13.32-18.7-24.69-18.7h-.24c-12.87.14-22.15,10.29-25.32,19.64-4.38,12.94-2.44,26.69-2.01,29.31,1.7,10.28,5.74,18.38,9.39,23.94-.56,1.07-1.12,2.14-1.68,3.22-8.09-21.6-16.16-42.55-25.93-64.5-2.53-5.69-8.19-9.37-14.42-9.37-2.22,0-4.38.46-6.41,1.36-4.74,2.11-7.91,6.28-8.96,10.99-1.71-.25-3.48-.39-5.33-.39-5.82,0-10.95,1.26-15.21,3.57-1.74-1.48-4-2.39-6.47-2.39h-39.31c-2.77,0-5.28,1.13-7.09,2.95-4.22-1.92-9.17-2.95-14.75-2.95h-18.11c-5.52,0-10,4.48-10,10v5.42l-1.23-7.13c-.83-4.79-4.99-8.3-9.85-8.3h-15.98c-4.87,0-9.02,3.5-9.85,8.3L.15,106.56c-.5,2.91.3,5.89,2.2,8.14,1.9,2.26,4.7,3.56,7.65,3.56h12.55c4.56,0,8.48-3.07,9.65-7.37,1.17,4.3,5.09,7.37,9.65,7.37h12.79c1.17,0,2.31-.21,3.38-.6,1.06.38,2.19.6,3.38.6h12.55c3.2,0,6.04-1.5,7.87-3.83,1.85,2.37,4.73,3.83,7.87,3.83h13.26c2.14,0,4.19-.7,5.88-1.94,1.65,1.21,3.69,1.94,5.9,1.94h12.55c5.52,0,10-4.48,10-10v-1.68c4.93,8.05,13.85,12.87,25.17,12.87,17.45,0,29.18-11.49,29.18-28.59v-4.03c0-2.59-.24-5.01-.67-7.3,2.71,7.17,5.4,14.39,8.13,21.74,2.35,6.32,4.71,12.67,7.11,19.03,2.28,6.13,8.22,10.25,14.77,10.25h.01c5.62,0,10.86-3.03,13.67-7.9,4.03-7.01,8.03-14.89,11.89-22.5.91-1.8,1.84-3.62,2.76-5.44,3.63,1.45,7.98,2.49,12.97,2.49,1.06,0,2.09-.05,3.09-.14v11.2c0,5.52,4.48,10,10,10h12.55c4.28,0,7.93-2.7,9.35-6.49,5.14,4.88,12.36,7.67,20.98,7.67s15.69-2.75,20.78-7.55c1.45,3.73,5.07,6.37,9.31,6.37h12.55c4.5,0,8.3-2.97,9.56-7.05,5.28,5.24,12.72,8.24,21.6,8.24s16.32-3,21.6-8.24c1.26,4.08,5.06,7.05,9.56,7.05h11.84c3.49,0,6.56-1.78,8.35-4.49,1.82,2.75,4.92,4.49,8.35,4.49h12.31c5.52,0,10-4.48,10-10v-62.58c.5.08,1.01.13,1.54.13h1.42c.82,0,1.61-.11,2.37-.3.76.19,1.55.3,2.37.3h1.34c.5,0,.99-.04,1.47-.11.48.07.97.11,1.47.11h1.39c.49,0,.98-.04,1.46-.11.48.07.97.11,1.47.11h1.34c5.52,0,10-4.48,10-10v-10.36c0-5.52-4.48-10-10-10Z" style="fill: #fff;"/>
  <g>
    <g>
      <path d="M41.85,108.26l-2.72-18.82h-13.85l-2.72,18.82h-12.55L24.33,25.39h15.98l14.33,82.87h-12.79ZM26.93,78.08h10.54l-5.09-34.92h-.35l-5.09,34.92Z" style="fill: #e3173e;"/>
      <path d="M79.74,73.22h-5.8v35.04h-12.55V25.39h18.11c13.5,0,20.84,7.34,20.84,20.95v5.92c0,8.76-3.08,14.92-8.88,18.23l11.48,37.77h-13.26l-9.94-35.04ZM73.94,61.62h5.09c6.04,0,8.76-3.2,8.76-10.18v-4.26c0-6.98-2.72-10.18-8.76-10.18h-5.09v24.62Z" style="fill: #e3173e;"/>
      <path d="M127.28,37.23v71.03h-12.55V37.23h-13.38v-11.84h39.31v11.84h-13.38Z" style="fill: #e3173e;"/>
      <path d="M181.04,43.15v2.37l-12.08,1.18v-2.6c0-5.68-2.13-8.29-6.51-8.29-3.67,0-6.27,2.01-6.27,6.75v1.78c0,4.62,2.37,8.41,10.54,15.86,11.13,10.3,14.92,17.05,14.92,26.64v4.03c0,12.19-7.7,18.59-19.18,18.59s-19.42-6.75-19.42-18.94v-5.45l12.08-1.18v5.68c0,5.56,2.6,8.29,7.1,8.29,3.79,0,6.87-2.01,6.87-7.93v-2.6c0-5.21-2.37-9-10.54-16.46-11.13-10.3-14.92-17.05-14.92-26.05v-2.01c0-12.19,7.1-18.59,18.71-18.59s18.71,6.75,18.71,18.94Z" style="fill: #e3173e;"/>
    </g>
    <g>
      <path d="M275.36,69.84c-.58.68-5.37,6.14-13.08,5.81-6.5-.27-10.49-4.46-11.26-5.3,7.32-13.98,10.79-32.22,8.86-42.94-.69-8.13-8.16-17.51-16.76-17.41-8.54.09-14.22,7.74-15.96,12.85-3.7,10.91-1.84,23.12-1.61,24.48,2,12.09,7.81,20.55,11.33,24.73-5.05,9.15-10.01,19.38-14.93,28.84-10.79-28.96-20.82-56.42-33.63-85.22-1.3-2.92-4.71-4.23-7.63-2.93-2.92,1.3-4.23,4.71-2.93,7.63,14.37,32.3,25.49,63.71,37.81,96.45.83,2.24,3.02,3.75,5.41,3.74,2.05,0,3.97-1.09,5-2.89,6.52-11.34,13-25.14,19.35-36.98,1.59,1.41,7.75,6.54,16.92,6.52,6.36-.01,11.04-2.5,13.11-3.77v24.82h12.55V25.39h-12.55v44.45ZM247.66,45.15c-.94,4.27-2.3,9.56-4.85,15.49-2.25-3.53-4.8-8.71-5.87-15.2-.61-3.59-2.1-22.26,6.31-23.89,1.5,0,4.85,3.74,5.11,6.84.03.33.07.73.13,1.2.29,2.49.9,7.66-.83,15.56Z"/>
      <path d="M322.5,60.2c-8.17-7.46-10.54-11.25-10.54-15.86v-1.78c0-4.74,2.61-6.75,6.28-6.75,4.38,0,6.51,2.6,6.51,8.29v2.6l12.08-1.18v-2.37c0-12.19-7.1-18.94-18.71-18.94s-18.71,6.39-18.71,18.59v2.01c0,9,3.79,15.75,14.92,26.05,8.17,7.46,10.54,11.25,10.54,16.46v2.6c0,5.92-3.08,7.93-6.87,7.93-4.5,0-7.1-2.72-7.1-8.29v-5.68l-12.08,1.18v5.45c0,12.19,7.81,18.94,19.42,18.94s19.18-6.39,19.18-18.59v-4.03c0-9.59-3.79-16.34-14.92-26.64Z"/>
      <rect x="348.33" y="25.39" width="12.55" height="82.87"/>
      <path d="M392.03,24.21c-12.55,0-20.24,7.93-20.24,20.95v43.33c0,13.02,7.7,20.95,20.24,20.95s20.24-7.93,20.24-20.95v-43.33c0-13.02-7.7-20.95-20.24-20.95ZM399.73,88.38c0,6.16-2.72,9.47-7.69,9.47s-7.69-3.31-7.69-9.47v-43.09c0-6.16,2.72-9.47,7.69-9.47s7.69,3.32,7.69,9.47v43.09Z"/>
      <polygon points="452.2 25.39 452.2 74.76 451.96 74.76 437.16 25.39 423.19 25.39 423.19 108.26 435.03 108.26 435.03 53.33 435.27 53.33 451.72 108.26 464.03 108.26 464.03 25.39 452.2 25.39"/>
    </g>
    <g>
      <path d="M480.48,25.45v1.23h-3.49v9.12h-1.42v-9.12h-3.49v-1.23h8.4Z"/>
      <path d="M481.74,25.45h2.01l2.98,8.76,2.96-8.76h2v10.36h-1.34v-6.11c0-.21,0-.56.01-1.05,0-.49.01-1.01.01-1.57l-2.96,8.74h-1.39l-2.99-8.74v.32c0,.25,0,.64.02,1.16.01.52.02.9.02,1.15v6.11h-1.34v-10.36Z"/>
    </g>
  </g>
</svg>